<svg width="119" height="40" viewBox="0 0 119 40" fill="none" xmlns="http://www.w3.org/2000/svg">
<path d="M40.2142 37.8809C40.2961 37.4824 40.6323 37.2125 41.0038 37.0467C46.1811 34.7359 49.0998 30.0529 49.0998 24.0017C49.0998 21.7879 48.5445 18.2796 47.809 16.4336C47.6494 15.7087 47.7931 15.3829 48.5446 14.9625L55.7449 11.2704L49.0999 7.57828C48.5373 7.22315 48.341 6.86758 47.993 6.47137C46.5146 4.62531 45.04 2.96312 42.2709 2.96312H27.3188C28.981 4.62531 30.6432 7.02297 30.6432 9.97961C30.6107 10.5404 30.4325 10.6808 30.2754 10.899L18.276 22.531C18.0921 22.8988 17.5369 22.8988 17.1691 22.8988C16.8014 22.8988 16.43 22.7149 16.2461 22.531C15.6908 21.9758 15.6908 21.0527 16.0622 20.5011L27.6942 9.2411C27.3264 5.36512 22.3399 2.59603 22.3399 2.59603C21.7847 2.22826 21.4169 1.67301 21.6008 1.11771C21.7847 0.562455 22.3399 0.0108167 22.8915 0.0108167L42.2714 0C46.1474 0 48.3649 2.58522 50.0234 4.43127L50.5787 4.98653L59.2536 9.96941C59.6214 10.1533 59.9928 10.7085 59.9928 11.2602C59.9928 11.8154 59.625 12.1832 59.2536 12.5509L50.9464 16.7983C51.6855 19.0121 52.0533 22.1526 52.0533 24.1826C52.0533 31.0461 48.6985 36.5664 43.1065 39.3072C42.556 39.577 41.9515 39.8032 41.3504 39.6827C41.014 39.6153 40.6587 39.4567 40.4248 39.112C40.1397 38.6917 40.1418 38.2329 40.2142 37.8809Z" fill="#E38466"/>
<path d="M40.9796 9.04504C40.9796 11.998 45.4072 11.998 45.4072 9.04504C45.4072 6.09208 40.9796 6.09208 40.9796 9.04504Z" fill="#13314D"/>
<path d="M0.918646 21.9671C0.918646 21.9671 6.82455 19.7533 14.5804 16.7967C15.3195 16.6128 16.0587 16.9806 16.4264 17.5358C16.6103 18.275 16.2426 19.0142 15.6873 19.3819C10.8883 21.0441 8.1194 21.9671 5.16663 23.2579C13.8416 26.7661 29.349 32.6718 33.4131 32.6718C38.5836 32.6718 42.8271 28.4244 42.8271 23.2579C42.8271 18.0874 39.5027 14.7669 34.3362 14.7669C33.9684 14.7669 33.4131 14.7669 32.4901 14.9508C31.751 15.1347 31.0118 14.5831 30.8279 13.8439C30.644 13.1048 31.1957 12.3656 31.9348 12.1817C32.8578 11.9979 33.7809 11.814 34.3362 11.814C40.9812 11.814 45.5962 16.4291 45.5962 23.074C45.5962 29.7189 40.058 35.257 33.4131 35.257C27.3197 35.257 3.69255 25.4711 0.92347 24.3644C0.368213 24.1805 0.000441599 23.6252 0.000441599 23.0736C-0.00316375 22.522 0.368209 22.3345 0.919857 21.9667L0.918646 21.9671Z" fill="#13314D"/>
<path d="M66.2043 39.7558C66.0465 39.8959 65.8067 39.88 65.6623 39.726L63.4534 37.3699C63.2934 37.1992 63.3142 36.929 63.4883 36.7727C64.22 36.1159 64.8001 35.319 65.2284 34.3821C65.7196 33.3384 65.9652 32.0797 65.9652 30.6062V11.8504C65.9652 11.6295 66.1442 11.4504 66.3652 11.4504H69.4792C69.7001 11.4504 69.8792 11.6295 69.8792 11.8504V30.7444C69.8792 32.8318 69.5262 34.643 68.8201 36.178C68.1696 37.592 67.2977 38.7846 66.2043 39.7558ZM65.5507 4.08281C65.5507 3.34605 65.8117 2.73208 66.3335 2.24091C66.8554 1.74974 67.4387 1.50415 68.0833 1.50415C68.6973 1.50415 69.2652 1.74974 69.7871 2.24091C70.309 2.73208 70.5699 3.34605 70.5699 4.08281C70.5699 4.81957 70.309 5.43354 69.7871 5.92471C69.2652 6.38519 68.6973 6.61543 68.0833 6.61543C67.4387 6.61543 66.8554 6.38519 66.3335 5.92471C65.8117 5.43354 65.5507 4.81957 65.5507 4.08281Z" fill="#13314D"/>
<path d="M73.6126 21.2586C73.6126 19.8464 73.8736 18.5264 74.3955 17.2985C74.948 16.0398 75.6848 14.95 76.6057 14.0291C77.5267 13.0774 78.5858 12.3253 79.783 11.7728C81.011 11.2202 82.3156 10.9439 83.6971 10.9439C84.618 10.9439 85.4622 11.0667 86.2297 11.3123C86.9971 11.5272 87.6572 11.8035 88.2097 12.1411C88.7623 12.4788 89.2074 12.8319 89.5451 13.2002C89.6374 13.301 89.7218 13.3983 89.798 13.4921C89.9296 13.654 90.2763 13.5703 90.2904 13.3622L90.3947 11.8234C90.409 11.6134 90.5834 11.4504 90.7938 11.4504H93.7959C94.0168 11.4504 94.1959 11.6295 94.1959 11.8504V30.2983C94.1959 30.5192 94.0168 30.6983 93.7959 30.6983H90.6358C90.4149 30.6983 90.2358 30.5192 90.2358 30.2983V29.4038C90.2358 29.0736 89.7326 28.8992 89.4991 29.1327V29.1327C89.1614 29.4704 88.7162 29.7927 88.1637 30.0997C87.6418 30.376 87.0125 30.6216 86.2757 30.8364C85.539 31.0513 84.6948 31.1588 83.7431 31.1588C82.2696 31.1588 80.9035 30.8978 79.6449 30.376C78.4169 29.8234 77.3578 29.102 76.4676 28.2117C75.5773 27.2908 74.8713 26.2317 74.3494 25.0345C73.8582 23.8372 73.6126 22.5786 73.6126 21.2586ZM77.5727 21.0283C77.5727 21.9186 77.7262 22.7474 78.0332 23.5149C78.3709 24.2823 78.816 24.9424 79.3686 25.4949C79.9212 26.0475 80.5812 26.4926 81.3486 26.8303C82.1161 27.1373 82.9603 27.2908 83.8813 27.2908C84.8022 27.2908 85.6464 27.1373 86.4139 26.8303C87.212 26.4926 87.8874 26.0475 88.44 25.4949C89.0232 24.9117 89.4684 24.2516 89.7753 23.5149C90.0823 22.7474 90.2358 21.9186 90.2358 21.0283C90.2358 20.1381 90.0823 19.3246 89.7753 18.5878C89.4684 17.8203 89.0232 17.1603 88.44 16.6078C87.8874 16.0552 87.212 15.6254 86.4139 15.3184C85.6464 14.9807 84.8022 14.8119 83.8813 14.8119C82.9603 14.8119 82.1161 14.9807 81.3486 15.3184C80.5812 15.6254 79.9212 16.0552 79.3686 16.6078C78.816 17.1603 78.3709 17.8203 78.0332 18.5878C77.7262 19.3246 77.5727 20.1381 77.5727 21.0283Z" fill="#13314D"/>
<path d="M104.67 39.7274C104.603 39.8658 104.463 39.9539 104.309 39.9539H101.238C100.943 39.9539 100.749 39.6455 100.876 39.3791C101.202 38.6923 101.509 38.0243 101.798 37.3752C102.197 36.577 102.581 35.7482 102.949 34.8886C103.348 34.0598 103.747 33.1849 104.146 32.2639C104.522 31.4244 104.94 30.5166 105.398 29.5406C105.451 29.4285 105.449 29.2984 105.392 29.1882C104.715 27.8599 104.023 26.4754 103.317 25.0345C102.581 23.4995 101.844 21.9646 101.107 20.4297C100.37 18.8948 99.6335 17.3599 98.8967 15.8249C98.2892 14.5043 97.6817 13.2404 97.0742 12.0333C96.9398 11.7664 97.1333 11.4504 97.4322 11.4504H100.815C100.966 11.4504 101.104 11.5352 101.172 11.6696C102.227 13.7538 103.095 15.5226 103.778 16.9761C104.515 18.4804 105.113 19.785 105.574 20.8902C106.065 21.9646 106.449 22.8856 106.725 23.653C106.872 24.021 107.009 24.3749 107.135 24.7147C107.265 25.0671 107.771 25.0746 107.901 24.722C108.027 24.38 108.157 24.0237 108.29 23.653C108.597 22.8856 108.981 21.9646 109.442 20.8902C109.933 19.785 110.531 18.4804 111.237 16.9761C111.949 15.5226 112.833 13.7538 113.889 11.6696C113.957 11.5352 114.095 11.4504 114.246 11.4504H117.646C117.941 11.4504 118.134 11.7584 118.007 12.0239L104.67 39.7274Z" fill="#13314D"/>
</svg>
